<svg width="69" height="70" viewBox="0 0 69 70" fill="none" xmlns="http://www.w3.org/2000/svg">
<rect x="0.581665" y="0.8302" width="68.4" height="68.4" rx="6" fill="black"/>
<path d="M56 24.5L46.6666 29.1666M46.6666 29.1666L45.5 29.75L35 35M46.6666 29.1666V37.3333M46.6666 29.1666L24.5 17.5M35 35L14 24.5M35 35V57.1666M43.3486 14.8913L48.0153 17.3413C53.0343 19.9756 55.545 21.2916 56.9403 23.66C58.3333 26.026 58.3333 28.973 58.3333 34.8646V35.1376C58.3333 41.027 58.3333 43.974 56.9403 46.34C55.545 48.7083 53.0343 50.0266 48.0153 52.661L43.3486 55.1086C39.2513 57.2576 37.2026 58.3333 35 58.3333C32.7973 58.3333 30.7486 57.26 26.6513 55.1086L21.9846 52.6586C16.9656 50.0243 14.455 48.7083 13.0596 46.34C11.6666 43.974 11.6666 41.027 11.6666 35.14V34.867C11.6666 28.9753 11.6666 26.0283 13.0596 23.6623C14.455 21.294 16.9656 19.9756 21.9846 17.3436L26.6513 14.8936C30.7486 12.7423 32.7973 11.6666 35 11.6666C37.2026 11.6666 39.2513 12.74 43.3486 14.8913Z" stroke="white" stroke-width="4" stroke-linecap="round"/>
</svg>
